<?xml version="1.0" encoding="utf-8"?>
<!-- Generator: Adobe Illustrator 19.0.0, SVG Export Plug-In . SVG Version: 6.00 Build 0)  -->
<svg version="1.1"
	 id="Upload_by_NICF-Nettie" xmlns:cc="http://creativecommons.org/ns#" xmlns:dc="http://purl.org/dc/elements/1.1/" xmlns:rdf="http://www.w3.org/1999/02/22-rdf-syntax-ns#"
	 xmlns="http://www.w3.org/2000/svg" xmlns:xlink="http://www.w3.org/1999/xlink" x="0px" y="0px" viewBox="15 298.9 626.3 244"
	 style="enable-background:new 15 298.9 626.3 244;" xml:space="preserve">
<style type="text/css">
	.st0{fill:#231F20;}
	.st1{fill:#FFFFFF;}
</style>
<g id="Endgame">
	<g transform="matrix(1.3333 0 0 -1.3333 -78.351 650.1)">
		<g transform="translate(225.17 332.53)">
			<path d="M11.3-224.2l-0.2,0c-0.3,0-0.5-0.4-1.6-0.4H-7.3c-0.6,0-1.3,0-1.4-0.6c-0.1-0.2,0-0.4,0.1-0.5c0.2-0.3,0.6-0.3,1-0.3
				c0.5,0,1-0.1,1.2-0.4c0.2-0.3,0.2-0.7,0-1.4l-3.1-10.3c-0.3-1-0.5-1.6-0.7-1.8c-0.5-0.6-1.4-0.9-2.1-1c-0.6-0.1-1.2-0.1-1.3-0.6
				c-0.1-0.2,0-0.3,0.1-0.5c0.2-0.3,0.7-0.3,1.2-0.3h17c2.6,0,3.2,3.1,4.5,5.1c0.3,0.5,0,1-0.5,1c-0.4,0-0.8-0.3-1.1-0.6
				c-2.3-2.8-3.7-3.1-6.4-3.1c0,0-2.9,0-5.3,0.1c-0.5,0-0.7,0.5-0.5,1.3c0.1,0.5,1.2,4.3,1.2,4.3h6.4c0.6-0.2,0.5-0.9,0.5-1.4
				c0-0.3-0.1-0.6,0.1-0.9c0.1-0.2,0.3-0.2,0.6-0.2c0.4,0,0.8,0.4,1,1.1l1.5,4.9c0.2,0.5,0.2,1,0.1,1.2c-0.1,0.2-0.4,0.3-0.6,0.3
				c-0.7,0-1-0.9-1.2-1.3c-0.3-0.6-0.9-1.2-1.7-1.2h-5.9l1,3.6c0.1,0.4,0.4,1.1,1.1,1.1c2.1,0,5.7,0,5.7,0c2.1,0,3,0.2,3.5-0.5
				c0.2-0.3,0.1-1,0.1-1.7c0-0.3-0.1-0.5,0.1-0.7c0.2-0.2,0.4-0.2,0.6-0.2c0.7,0,1.9,3.4,2.3,4.2l0.1,0.3
				C12.3-224.3,11.6-224.2,11.3-224.2"/>
		</g>
		<g transform="translate(272.63 332.11)">
			<path d="M11.3-224.2H4.4c-1.2,0-2.1-0.1-2.1-0.7c0-0.3-0.1-0.7,1.5-0.8c0.5,0,1.1-0.2,1.3-0.7c0-0.2,0.2-0.5-0.1-1.4l-2.1-6.9
				l-8.5,8.3c-1,1-1.9,2.2-4,2.2h-3.7c-2,0-1.9-0.6-1.9-0.8c0-0.1-0.1-0.6,1-0.6c0,0,1.4,0.1,1.7-0.7c0.1-0.4,0-1-0.3-2l-2.9-9.4
				c-0.3-1-0.6-1.6-0.8-1.8c-0.4-0.5-1-0.8-1.9-0.9c-0.1,0-1.4-0.1-1.6-0.6c0-0.2,0-0.3,0.1-0.5c0.2-0.3,0.7-0.3,1.2-0.3l6.8,0
				c0.6,0,1.5,0,1.6,0.6c0,0.1,0,0.3-0.1,0.4c-0.3,0.4-1,0.3-1.5,0.4c-0.7,0.1-1,0.4-1.1,0.7c0,0.2-0.1,0.9,0.2,1.8l2.5,7.9l12-11.7
				c0.5-0.4,0.8-0.5,1.2-0.5c0.9,0.1,1,0.8,1.2,1.4L8-228.2c0.4,1.9,2,2.6,3,2.6c0.1,0,1.2,0,1.4,0.6c0.1,0.2,0,0.3-0.1,0.5
				C12.1-224.2,11.7-224.2,11.3-224.2"/>
		</g>
		<g transform="translate(309.82 323.86)">
			<path d="M11.3-224.2c-0.7-3.4-4-7.2-9.9-7.2l-3.9,0c-1.2,0-0.9,0.8-0.8,1.2L0-218.5c0.1,0.4,0.4,0.5,1.3,0.5h4.3
				c2.9,0,4.1-0.3,5.4-2.1C11.7-221.1,11.6-222.7,11.3-224.2 M5.1-215.9c-2.6,0-4.1,0-11.1,0c-0.5,0-1.4-0.1-1.5-0.7
				c0-0.8,1.4-0.7,1.4-0.7c0.8,0,1.1-0.2,1.2-0.6c0-0.2,0-0.6-0.2-1.4l-3-10.1c-0.3-1-0.5-1.6-0.7-1.8c-0.4-0.5-1-0.6-1.9-0.7
				c-1.7-0.3-1.5-0.8-1.5-1.1c0-0.4,0.7-0.5,1.2-0.5l11.1,0c7.7,0,14.5,1.9,16.8,8.8c0.6,1.8,0.5,4.1-0.7,5.5
				C13.2-215.8,9.5-215.9,5.1-215.9"/>
		</g>
		<g transform="translate(359.88 323.05)">
			<path d="M11.3-224.2l-8,0c-0.6,0-2,0-2-0.6c0-0.8,0.6-0.9,1-1c0.5-0.1,1.1-0.1,1.3-0.4c0.3-0.4,0.1-0.7-0.1-1.4L2.6-230
				c-1.9-0.9-2.9-1-4.8-1c-2.9,0.1-4.9,0.7-6.2,2.4c-0.9,1.2-0.8,3-0.2,4.7c1.4,4.5,5.9,7.2,10.9,7.1c3.7-0.1,5.2-0.6,5.9-2.4
				c0-0.1,0.1-0.5,0.2-0.8c0.2-0.9-0.1-1.8,0.8-1.8h0c0.7,0.1,0.9,1.1,1.1,1.6c0.3,0.8,0.5,1.6,0.7,2.2c0.6,2.1,0,2.4-0.6,2.4
				l-0.1,0c-0.2-0.1-0.5-0.2-0.8-0.2c-0.1,0-0.5,0.1-0.7,0.1c-0.2,0-0.8,0.3-1,0.4c-1.8,0.5-2.2,0.5-4.4,0.7
				c-5.5,0.4-15.5-1.7-17.7-9c-0.5-1.7-0.5-3.5,0.4-4.9c1.2-2,3.7-3.5,6.8-4.1c1.2-0.3,2.6-0.4,4.9-0.4c3.3,0,5.1,0.2,7.8,1.2
				c0.8,0.3,1.9,1.1,2.1,1.8l0.7,2.4c0.5,1.5,1.3,1.9,2.1,1.9c0.1,0,1.8-0.1,1.8,1C12.1-224.3,11.7-224.2,11.3-224.2"/>
		</g>
		<g transform="translate(394.16 327.61)">
			<path d="M11.3-224.2l1.9-5.5l-7.2,0L11.3-224.2z M21.9-235.8c-1.4,0.2-2.1,2.3-2.2,2.8l-3.9,11.1c-0.6,1.4-1.2,2.2-3.4,2.2
				l-3.4,0c-0.6,0-1.1-0.2-1.1-0.7c0-0.8,0.7-0.7,1.7-0.7c0.6,0,0.7-0.4,0.4-0.7l-12.1-12.7c-0.6-0.7-1.6-1.3-3.2-1.5
				c-0.4-0.1-1.2-0.1-1.2-0.7c0-0.7,0.6-0.6,1.2-0.6l7.2,0c0.8,0,1.1,0.4,1.1,0.6c0,0.3-0.1,0.6-0.6,0.7c-1.2,0-1.5,0.5-1,1
				c0.2,0.2,2.5,2.9,2.5,2.9h10.2l0.9-2.2c0.3-0.9-0.3-1.5-1.2-1.6c-0.6-0.1-1-0.2-1.1-0.6c0-0.2,0-0.3,0.1-0.5
				c0.1-0.2,0.4-0.3,0.8-0.3l6.6,0c1.7,0,2.9-0.2,3.1,0.5C23.2-236.2,22.8-235.9,21.9-235.8"/>
		</g>
		<g transform="translate(457.2,332.11)">
			<path d="M11.3-224.2l-2.9,0c-1.1,0-2.2,0.3-3.3-1l-9.3-10.3l-2.6,9.4c-0.4,1.7-1.1,1.8-2.8,1.8h-4c-0.4,0-1.2,0-1.2-0.6
				c0-0.6,0.3-0.7,1-0.7c0.7,0,1.2,0,1.2-0.5c0.1-0.4-0.7-1.6-1-1.9l-6.4-10.1c-0.6-1-1.2-2.2-2.7-2.2c-1.6,0-1.9-0.4-1.9-0.8
				c0-0.6,0.5-0.7,1.1-0.7l7.7,0c0.6,0,1,0.3,1.1,0.7c0,0.2-0.1,0.8-1,0.8c-1.6,0-1.5,0.6-1.3,0.9c0.2,0.4,5.8,9.6,5.8,9.6l3.2-11.5
				c0.1-0.5,0.1-1,0.9-1c0.9,0.1,11.8,12.6,11.8,12.6l0-8.9c0-0.2,0-0.5-0.1-0.8c-0.2-0.7-1.4-1.1-2.2-1.2c-0.7-0.1-1.1-0.2-1.2-0.5
				c-0.1-0.2,0-0.3,0.1-0.4c0.2-0.2,0.5-0.3,1.5-0.3h8.8c0.9,0,1.5,0,1.7,0.5c0,0.1,0,0.3,0,0.4c-0.1,0.2-1,0.3-1.4,0.4l-0.2,0
				c-1.1,0.2-1.6,1.4-1.6,2l-0.4,10.7c0,1.3,0,2,1.9,2.2c0.8,0.1,1.4,0.2,1.4,0.7C12.9-224.2,12.3-224.2,11.3-224.2"/>
		</g>
		<g transform="translate(499.6 332.53)">
			<path d="M11.3-224.2l-0.2,0c-0.3,0-0.5-0.4-1.6-0.4H-7.3c-0.6,0-1.3,0-1.4-0.6c-0.1-0.2,0-0.4,0.1-0.5c0.2-0.3,0.6-0.3,1-0.3
				c0.5,0,1-0.1,1.2-0.4c0.2-0.3,0.2-0.7,0-1.4l-3.1-10.3c-0.3-1-0.5-1.6-0.7-1.8c-0.5-0.6-1.4-0.9-2.1-1c-0.6-0.1-1.2-0.1-1.3-0.6
				c-0.1-0.2,0-0.3,0.1-0.5c0.2-0.3,0.7-0.3,1.2-0.3h17c2.6,0,3.2,3.1,4.5,5.1c0.3,0.5,0,1-0.5,1c-0.4,0-0.8-0.3-1.1-0.6
				c-2.3-2.8-3.7-3.1-6.4-3.1c0,0-2.9,0-5.3,0.1c-0.5,0-0.7,0.5-0.5,1.3c0.1,0.5,1.2,4.3,1.2,4.3h6.4c0.6-0.2,0.5-0.9,0.5-1.4
				c0-0.3-0.1-0.6,0.1-0.9c0.1-0.2,0.3-0.2,0.6-0.2c0.4,0,0.8,0.4,1,1.1l1.5,4.9c0.2,0.5,0.2,1,0.1,1.2c-0.1,0.2-0.4,0.3-0.6,0.3
				c-0.7,0-1-0.9-1.2-1.3c-0.3-0.6-0.9-1.2-1.7-1.2h-5.9l1,3.6c0.1,0.4,0.4,1.1,1.1,1.1c2.1,0,5.7,0,5.7,0c2.1,0,3,0.2,3.5-0.5
				c0.2-0.3,0.1-1,0.1-1.7c0-0.3-0.1-0.5,0.1-0.7c0.2-0.2,0.4-0.2,0.6-0.2c0.7,0,1.9,3.4,2.3,4.2l0.1,0.3
				C12.3-224.3,11.6-224.2,11.3-224.2"/>
		</g>
	</g>
</g>
<g id="Avengers">
	<g transform="translate(443.82 418.47)">
		<path d="M84.6-27.5l10,0c0,0,1.4,0,0.9,1.6c-0.6,2.1-3.7,13.7-4.4,16.2c-0.4,1.4-1.2,1.6-1.6,1.6h-0.1c0,0,0,0,0,0H79.3L84.6-27.5
			z M57.3,69.7l14.5-51.2H82c0,0,1.3-0.2,0.8,1.4L68.9,69.7h27.3l12.6-44.8c1.1-3.8,2.6-14.2-4.9-17.6C111,5.8,115,1.9,117.8-6.9
			c4-12.6,6.1-21.9,7.6-28c0.4-1.4,0.6-2.6,0.9-3.4c1.3-5.2,0.9-9.3-1.4-12.2c-2.9-3.8-7.8-4.1-9.2-4.1c-0.2,0-0.3,0-0.4,0l-50.4,0
			L30,69.7"/>
	</g>
	<g transform="translate(227.68 424.27)">
		<path d="M12.5-41C6.6-19.5-5.8,25.3-12.3,47.2c-1.7,5.8-1.5,10.3,0.7,13.3c2.7,3.4,7.5,3.4,8.1,3.4h39.6l7.4-26.8H20.9
			c-1.4,0-0.9-1.1-0.9-1.1L27,11.9h15.6L58.9-14H34.1l5-18.1c0,0,0.2-1.3,1.3-1.3c4.1,0,23.1,0,23.1,0L71-60.3H28.6
			c-0.1,0-0.4,0-0.7,0c-2.4,0-10.3,0.8-13,10.7"/>
	</g>
	<g transform="translate(362.01 348.15)">
		<path d="M57.3,136.6c2.3,3.1,6,3.4,7.5,3.4c0.3,0,0.5,0,0.6,0H105l7.4-26.8H89.8c-1.4,0-0.9-1.1-0.9-1.1L95.9,88h15.6l16.3-25.9
			H103l5-18.1c0,0,0.2-1.3,1.3-1.3c4.1,0,23.1,0,23.1,0l7.4-26.9H97.5c-0.1,0-0.4,0-0.7,0c-2.4,0-10.3,0.8-13,10.7l-2.4,8.6
			c-5.9,21.5-18.3,66.2-24.8,88.2C54.9,129.2,55.1,133.7,57.3,136.6"/>
	</g>
	<g transform="translate(191.98 345.58)">
		<path d="M0.6,142.6L52.4,18.4H24.9L2.3,76.2l1.4-57.8h-29.1l2.5,124.2"/>
	</g>
	<g transform="translate(527.07 436.11)">
		<path d="M112.3-68.6c-1.8-2.3-4.5-3.5-8.2-3.5H64.4c-0.2,0-0.5,0-0.9,0c-2.3,0-10.1,0.8-12.9,10.7c-0.3,1.2-1.1,4.3-2.2,8.4
			c-2.1,7.9-5.2,19.8-7.5,28.1c-2,6.1,1.9,9.7,2.1,9.8l23.8,21c0.7,0.6,5.6,4.8,5.3,5.9C71.3,14.9,68.5,24,68,25.4h-0.4
			c-0.1,0-0.2,0-0.3,0H52.7c-1.1,0-0.5-1.1-0.5-1.1l4.2-14.8H31.6l-8.6,32.3c-0.1,0.4-1.2,4.4,1,7.4c1,1.3,3,2.9,6.9,2.9h39.7
			c9.7,0,14.7-7.3,16.1-11.2c0.1-0.2,6.2-21,10.6-37c2-6.5-1.5-10-2.2-10.7L71.8-27.9c-0.1-0.1-5.6-4.7-5.2-5.9
			c1.7-6.6,3-10.4,3-10.5c0.3-0.8,0.7-0.8,0.9-0.8h15.2c0.7,0,0.4,0.8,0.4,0.8l-3.3,12.1h23.7l7.2-26.6
			C113.9-59.3,115.3-64.7,112.3-68.6"/>
	</g>
	<g transform="translate(280.27 345.57)">
		<path d="M30.1,142.6h23.3L88.2,18.4H64L50.8,68.3l-1.1-49.9H25.1L-9.8,142.6h24.2l15.8-57.7"/>
	</g>
	<g transform="translate(352.54 342.86)">
		<path d="M54.2,149l21.9-79.9H45.2l2.6,9l-11.2,40.4H24.1c-1.8,0-0.9-1.6-0.9-1.6l18.4-67.6c0.1-0.4,0.4-1.1,1.4-1.1
			c0,0,11.4,0,12.5,0c1.1,0,0.8,1,0.8,1l-3.5,12.8h25.5l7.5-27.4c0.2-0.6,1.5-6-1.4-9.9c-1.8-2.3-4.5-3.5-8.2-3.5H32.1
			c-2.3,0-10,0.8-12.8,10.7c-0.8,3-2.4,8.5-4.3,15.6l-4.7,17.1C4.4,85.1-6.9,125.2-7.9,128.5c-1.7,5.8-1.5,10.3,0.7,13.2
			c2.3,3.1,5.9,3.6,7.4,3.6h24.7l-3.2,12.4"/>
	</g>
	<g transform="translate(143.82 345.58)">
		<path d="M-15.4,142.6H16l-0.5-28l-30.9,23.5"/>
	</g>
	<g transform="translate(143.79 352.84)">
		<path d="M-15.4,125.7L15.7,102l-31.4-29.9l0.1,11.8l-26.8,0l26.5-57.2l0.2,39.6l31.1,29.7L13.1-40.1h-28.9l-113,230.1h37.2
			l35.4-76.4h40.7"/>
	</g>
	<g transform="translate(64.209 385.17)">
		<path d="M-42,50.2c0,13.2,1.9,29.9,15.6,51.2l8.8-18c-5.5-10.4-7.8-24.7-7.8-33.3C-25.4,15,0-17.4,35.1-23.6
			c3.5-7.3,6.6-13.5,8.8-18.1C-6.5-38.6-42,3.4-42,50.2"/>
	</g>
	<g transform="translate(173.74 342.95)">
		<path d="M-5.4,148.8c-13.6,12.9-32,20.1-52.2,20.1c-14.6,0-28.2-4.1-39.8-11.2l-7.1,14.8c13.9,8.3,29.7,13.1,47.1,13.1
			c30.2,0,57-14.4,73.9-36.7"/>
	</g>
</g>
<g id="Marvel_Studios">
	<g id="Lines">
		<path class="st0" d="M354.2,300.4h85.3v-1.5h-85.3V300.4z"/>
		<path class="st0" d="M354.2,339.1h85.3v-1.5h-85.3V339.1z"/>
	</g>
	<g id="Studios">
		<g transform="translate(322.03 468.55)">
			<path d="M44-144.3v4.3c0,3.7-1.8,5.5-5.5,5.5h-0.9c-3.6,0-5.4-1.8-5.4-5.4v-4.1h3.3v4.2c0,1.5,0.7,2.2,2.2,2.2h0.7
				c1.5,0,2.2-0.7,2.2-2.2v-4.4c0-1.5-0.5-2.1-1.5-2.8l-4.1-3c-2.2-1.6-2.8-3.1-2.8-5.5v-3.5c0-3.7,1.8-5.5,5.5-5.5h0.8
				c3.6,0,5.4,1.8,5.4,5.4v2.5h-3.3v-2.7c0-1.5-0.7-2.2-2.2-2.2h-0.6c-1.5,0-2.2,0.7-2.2,2.2v3.7c0,1.5,0.5,2.1,1.5,2.8l4.1,2.9
				C43.3-148.2,44-146.8,44-144.3"/>
		</g>
		<g transform="translate(325.91 461.41)">
			<path d="M45.3-127.6V-154h-4.4v-3.1h12.2v3.1h-4.4v26.4"/>
		</g>
		<g transform="translate(341.72 465.33)">
			<path d="M50.5-136.8c0,3.7-1.8,5.5-5.5,5.5H44c-3.7,0-5.5-1.8-5.5-5.5V-161h3.4v24.4c0,1.5,0.7,2.2,2.2,2.2h0.8
				c1.5,0,2.2-0.7,2.2-2.2V-161h3.4"/>
		</g>
		<g transform="translate(345.85 463.72)">
			<path d="M51.9-133h2c2.3,0,3.3-1.1,3.3-3.4V-153c0-2.3-1.1-3.4-3.3-3.4h-2V-133z M48.6-159.4h5.6c4.4,0,6.5,2.1,6.5,6.5v16.4
				c0,4.4-2.1,6.5-6.5,6.5h-5.6"/>
		</g>
		<path d="M408.5,333.8h3.4v-29.5h-3.4V333.8z"/>
		<g transform="translate(362.92 481.4)">
			<path d="M57.6-174.3h-1c-1.5,0-2.2,0.7-2.2,2.2v19.4c0,1.5,0.7,2.2,2.2,2.2h1c1.5,0,2.2-0.7,2.2-2.2v-19.4
				C59.8-173.6,59.1-174.3,57.6-174.3 M57.7-147.4h-1.3c-3.7,0-5.5-1.8-5.5-5.5v-19c0-3.7,1.8-5.5,5.5-5.5h1.3
				c3.7,0,5.5,1.8,5.5,5.5v19C63.2-149.2,61.4-147.4,57.7-147.4"/>
		</g>
		<g transform="translate(377.07 468.55)">
			<path d="M62.3-144.3v4.3c0,3.7-1.8,5.5-5.5,5.5h-0.9c-3.6,0-5.4-1.8-5.4-5.4v-4.1h3.3v4.2c0,1.5,0.7,2.2,2.2,2.2h0.7
				c1.5,0,2.2-0.7,2.2-2.2v-4.4c0-1.5-0.5-2.1-1.5-2.8l-4.1-3c-2.2-1.6-2.8-3.1-2.8-5.5v-3.5c0-3.7,1.8-5.5,5.5-5.5h0.8
				c3.6,0,5.4,1.8,5.4,5.4v2.5H59v-2.7c0-1.5-0.7-2.2-2.2-2.2h-0.6c-1.5,0-2.2,0.7-2.2,2.2v3.7c0,1.5,0.5,2.1,1.5,2.8l4.1,2.9
				C61.7-148.2,62.3-146.8,62.3-144.3"/>
		</g>
	</g>
	<g id="Background">
		<path d="M259.7,339.1h89.4v-40.3h-89.4V339.1z"/>
	</g>
	<g id="Marvel">
		<g transform="translate(307.18 465.4)">
			<path class="st1" d="M39-137h-4.5v-24.2h-5.3v29.5H39V-137z M-18.3-140.9h3l-1.5-12.6L-18.3-140.9z M-4.1-155.9
				C-4.1-155.9-4.1-155.9-4.1-155.9l0,9.5c0.4,0,0.8-0.1,1.3-0.3c1.2-0.6,2.3-2.1,2.3-4.5C-0.6-155.8-3.7-155.9-4.1-155.9
				 M28.3-155.7h-4.8v6.7h4.8v5.4h-4.8v6.8h4.8v5.3H18.3v-26.7L14-131.7l-6.2,0c0,0-3.2-18.9-3.2-19c0.5,3.1-1.4,6.3-3.1,7.5
				l3.4,11.4h0l0,0h-5.2l-2.6-9.8l-1.2,0.2v9.6h0v0h0l-10.1,0l-0.6-4.5H-19l-0.6,4.5h-10.3v-14.2l-2.4,14.2h-2.8l-2.4-14.2v14.2
				h-5.3v-29.5h6.8l2.4,15.2l2.4-15.2h6.8v27.1l4.1-27.1l7.1,0l3.9,26.2l0-26.2c0,0,5.4,0,5.4,0c4.9,0,7.1,3.6,7.7,4.8l-0.6-4.8h5.4
				l2.4,18l2.5-18h15"/>
		</g>
	</g>
</g>
</svg>
